<svg width="257" height="78" viewBox="0 0 257 78" fill="none" xmlns="http://www.w3.org/2000/svg">
<g clip-path="url(#clip0_619_88)">
<path d="M39.2158 0.862061C19.0025 0.862061 2.44338 16.3098 0.869839 35.9415L21.4937 44.393C23.2412 43.2084 25.3523 42.5144 27.6235 42.5144C27.827 42.5144 28.0297 42.523 28.2306 42.5325L37.4022 29.3565C37.4022 29.2936 37.4022 29.2324 37.4022 29.1703C37.4022 21.2395 43.9112 14.7873 51.9137 14.7873C59.9154 14.7873 66.4244 21.2395 66.4244 29.1703C66.4244 37.1011 59.9154 43.5542 51.9137 43.5542C51.8033 43.5542 51.6937 43.5542 51.5841 43.5455L38.5034 52.7962C38.5121 52.9644 38.5165 53.1359 38.5165 53.3066C38.5165 59.2605 33.6306 64.1023 27.6243 64.1023C22.3522 64.1023 17.9439 60.3727 16.9453 55.4335L2.19547 49.3934C6.76213 65.4015 21.6007 77.1378 39.2158 77.1378C60.4677 77.1378 77.6949 60.0623 77.6949 39.0012C77.6949 17.9367 60.4669 0.862061 39.2158 0.862061Z" fill="white"/>
<path d="M24.9826 58.7304L20.2559 56.7949C21.0936 58.5235 22.5427 59.971 24.4668 60.7659C28.6264 62.4833 33.4218 60.5271 35.1554 56.4009C35.9948 54.4059 36 52.2032 35.1676 50.203C34.3369 48.202 32.7694 46.6415 30.754 45.8087C28.7543 44.9837 26.6119 45.0138 24.7295 45.7182L29.6119 47.7192C32.6798 48.9866 34.1307 52.4782 32.8521 55.519C31.576 58.5606 28.0506 59.9986 24.9826 58.7304Z" fill="white"/>
<path d="M61.5811 29.1704C61.5811 23.8864 57.2441 19.5869 51.912 19.5869C46.5807 19.5869 42.2429 23.8864 42.2429 29.1704C42.2429 34.4553 46.5807 38.7531 51.912 38.7531C57.2441 38.7531 61.5811 34.4544 61.5811 29.1704ZM44.6645 29.154C44.6645 25.1779 47.9168 21.9552 51.9285 21.9552C55.9402 21.9552 59.1925 25.1779 59.1925 29.154C59.1925 33.1302 55.9402 36.3529 51.9285 36.3529C47.9168 36.3529 44.6645 33.1293 44.6645 29.154Z" fill="white"/>
<path d="M118.789 26.9563L116.21 31.4481C114.225 30.073 111.533 29.2453 109.184 29.2453C106.499 29.2453 104.837 30.3471 104.837 32.3206C104.837 34.7182 107.789 35.276 112.175 36.8364C116.891 38.4891 119.601 40.4315 119.601 44.712C119.601 50.5685 114.954 53.8576 108.276 53.8576C105.021 53.8576 101.094 53.0247 98.0761 51.2048L99.9567 46.2251C102.409 47.5088 105.342 48.2701 107.957 48.2701C111.481 48.2701 113.156 46.9812 113.156 45.0758C113.156 42.8955 110.602 42.2403 106.478 40.8867C101.778 39.3314 98.5214 37.2908 98.5214 32.5533C98.5214 27.2107 102.838 24.1423 109.05 24.1423C113.379 24.1423 116.859 25.5019 118.789 26.9563Z" fill="white"/>
<path d="M132.872 53.3654V29.7955H124.061V24.6348H147.728V29.7955H138.943V53.3654H132.872Z" fill="white"/>
<path d="M172.143 36.2538V41.4145H160.525V48.1573H174.004V53.3654H154.456V24.6348H174.004V29.78H160.525V36.2538H172.143Z" fill="white"/>
<path d="M187.554 47.7873L185.635 53.3662H179.271L190.14 24.6355H196.25L207.426 53.3653H200.848L198.887 47.7864L187.554 47.7873ZM193.161 31.4886L189.202 42.9921H197.201L193.161 31.4886Z" fill="white"/>
<path d="M227.223 52.5283L219.419 35.8899V53.3654H213.605V24.6348H219.406L229.148 45.3743L238.544 24.6348H244.394V53.3654H238.582V35.7399L230.649 52.5283H227.223Z" fill="white"/>
<path d="M256.13 28.2591C256.13 30.7282 254.263 32.2671 252.121 32.2671C249.971 32.2671 248.1 30.7282 248.1 28.2591C248.1 25.7908 249.971 24.2622 252.121 24.2622C254.264 24.2622 256.13 25.7908 256.13 28.2591ZM248.774 28.2591C248.774 30.3247 250.275 31.6223 252.121 31.6223C253.96 31.6223 255.455 30.3247 255.455 28.2591C255.455 26.1874 253.96 24.9097 252.121 24.9097C250.28 24.9097 248.774 26.2029 248.774 28.2591ZM252.177 26.2167C253.216 26.2167 253.566 26.7615 253.566 27.3504C253.566 27.8901 253.243 28.2522 252.85 28.4367L253.782 30.167H253.019L252.233 28.6332H251.423V30.167H250.788V26.2167H252.177ZM251.43 28.0547H252.138C252.596 28.0547 252.867 27.7694 252.867 27.4107C252.867 27.0486 252.673 26.8159 252.136 26.8159H251.429V28.0547H251.43Z" fill="white"/>
</g>
<defs>
<clipPath id="clip0_619_88">
<rect width="257" height="78" fill="white"/>
</clipPath>
</defs>
</svg>
