<svg width="328" height="60" viewBox="0 0 328 60" fill="none" xmlns="http://www.w3.org/2000/svg">
<g clip-path="url(#clip0_619_100)">
<path d="M26.9897 -5.34058e-05V52.4784L38.7633 56.2429V12.2405C38.7633 10.167 39.6793 8.79033 41.1485 9.26378C43.0694 9.80148 43.4427 11.7115 43.4427 13.7619V31.3358C50.7712 34.9157 56.5409 31.3339 56.5409 21.8886C56.5409 12.2367 53.1582 7.93699 43.2048 4.47997C39.2788 3.16066 32.0029 0.934376 26.9897 -5.34058e-05Z" fill="white"/>
<path d="M41.0026 48.571L59.9119 41.7786C62.051 40.9782 62.378 39.891 60.6468 39.3196C58.8884 38.7376 55.7498 38.9042 53.5878 39.6876L41.0026 44.1683V37.0191L41.7233 36.7789C41.7233 36.7789 45.3662 35.4764 50.49 34.9157C55.6039 34.3499 61.8755 34.9893 66.8046 36.8644C72.3573 38.6447 72.9797 41.2415 71.5749 43.0486C70.1496 44.837 66.694 46.1307 66.694 46.1307L41.0026 55.4451" fill="white"/>
<path d="M5.41779 47.8482C-0.275258 46.2476 -1.22461 42.8654 1.37252 40.9117C3.76816 39.1277 7.84805 37.7847 7.84805 37.7847L24.7133 31.7159V38.623L12.588 43.0095C10.4402 43.7849 10.1182 44.8759 11.8482 45.4466C13.6091 46.0405 16.7341 45.8808 18.8831 45.0805L24.7133 42.959V49.1251C24.3376 49.1887 23.9197 49.253 23.5384 49.3185C17.7254 50.2922 11.5324 49.8923 5.41779 47.8482Z" fill="white"/>
<path d="M68.571 52.6644C68.571 52.839 68.5296 52.9532 68.4412 53.0106C68.3392 53.0804 68.2057 53.1154 68.0376 53.1154H67.1921V52.2445H68.0871C68.2138 52.2445 68.3083 52.2664 68.3844 52.2963C68.508 52.3575 68.571 52.4803 68.571 52.6644ZM69.1823 54.6611C69.1396 54.6486 69.11 54.6062 69.0853 54.5345C69.0741 54.4789 69.0661 54.4003 69.0636 54.2993L69.05 53.9044C69.0438 53.7217 69.0092 53.5794 68.9332 53.4946C68.8955 53.4279 68.8281 53.3854 68.7639 53.3393C68.8479 53.2619 68.9252 53.1827 68.9907 53.096C69.0661 52.9731 69.11 52.8066 69.11 52.6288C69.11 52.2664 68.9555 52.0088 68.6545 51.8659C68.5043 51.8017 68.3083 51.7599 68.0753 51.7599H66.6476V54.8595H67.1921V53.5975H68.0222C68.1767 53.5975 68.2805 53.6175 68.3565 53.6431C68.4591 53.7092 68.5148 53.809 68.5216 53.9805L68.5481 54.464C68.5562 54.5875 68.5642 54.6611 68.571 54.7172L68.6118 54.8239L68.6229 54.8595H69.2206V54.6829M65.5289 53.3798C65.5289 52.7467 65.7637 52.1659 66.1927 51.7355C66.6321 51.2958 67.2187 51.0587 67.8281 51.0587C68.4381 51.0587 69.0098 51.2958 69.4388 51.7355C69.8714 52.1659 70.1051 52.7467 70.1051 53.3798C70.1051 54.6486 69.0828 55.6785 67.8281 55.6785C67.2187 55.6785 66.6321 55.4439 66.1927 55.0098C65.7637 54.5719 65.5289 53.9974 65.5289 53.3798ZM67.8281 56.1538C68.5642 56.1538 69.2478 55.8606 69.7688 55.3416C70.2837 54.8133 70.5742 54.1234 70.5742 53.3798C70.5742 52.6294 70.2837 51.9277 69.7688 51.4093C69.2478 50.8791 68.5642 50.5953 67.8281 50.5953C66.3002 50.5953 65.0647 51.8397 65.0647 53.3798C65.0647 54.1234 65.3496 54.8133 65.8645 55.3416C66.3861 55.8606 67.092 56.1538 67.8281 56.1538Z" fill="white"/>
<path d="M110.557 13.7719L96.3385 13.7656C96.2798 13.7656 96.2328 13.8124 96.2328 13.8667V47.4276C96.2328 47.4812 96.2798 47.5317 96.3385 47.5317H102.101L102.202 47.4276L102.209 17.5096L102.243 17.4597L108.841 17.4472C111.243 17.4472 112.563 19.8906 112.563 24.3182C112.563 28.7483 111.243 31.1973 108.841 31.1973L104.87 31.1929C104.81 31.1929 104.77 31.2385 104.77 31.2959V34.7778C104.77 34.8458 104.81 34.887 104.87 34.887H110.557C112.563 34.887 114.528 33.9488 115.946 32.3363C117.625 30.4226 118.51 27.6598 118.51 24.3488C118.51 17.9325 115.405 13.7719 110.557 13.7719Z" fill="white"/>
<path d="M127.934 13.7656H122.168C122.103 13.7656 122.056 13.8124 122.056 13.8667V47.4276C122.056 47.4818 122.103 47.5317 122.168 47.5317H127.934L128.04 47.4276V13.8667L127.934 13.7656Z" fill="white"/>
<path d="M153.081 21.9348C153.081 21.8756 153.029 21.8307 152.972 21.8307H142.704C133.497 21.8307 132.32 28.6518 132.32 34.6463L132.327 39.8306C132.327 44.2919 135.076 47.5312 138.856 47.5312H144.458L144.559 47.4277V43.9495C144.559 43.8927 144.512 43.8422 144.458 43.8422L140.456 43.849C139.534 43.8297 138.293 43.4361 138.293 40.2373V34.6401C138.289 30.9205 138.632 28.5426 139.397 27.1896C140.226 25.6963 141.531 25.496 142.704 25.496H147.081L147.118 25.5484L147.112 47.4277C147.112 47.4807 147.157 47.5312 147.218 47.5312H152.974C153.03 47.5312 153.081 47.4807 153.081 47.4277" fill="white"/>
<path d="M194.558 27.8103L191.719 27.592C189.589 27.4067 188.006 26.2165 188.006 22.6952C188.006 18.5839 189.833 17.4592 192.272 17.4592H200.13L200.235 17.3569V13.8668L200.13 13.7664H199.966L191.452 13.7682C186.089 13.7682 182.274 16.9477 182.274 23.2841V23.5598C182.274 28.5594 185.323 32.168 189.866 32.5186L192.691 32.7301C194.847 32.8948 196.19 34.8403 196.19 37.7927V38.623C196.19 40.4688 195.732 43.8459 191.81 43.8459H183.645C183.59 43.8459 183.542 43.894 183.542 43.9532V47.4271L183.645 47.5312H193.782C196.906 47.5312 202.137 46.2556 202.137 37.6748C202.137 34.5659 201.437 32.1156 200.019 30.3447C198.81 28.8239 197.018 28.0012 194.558 27.8103Z" fill="white"/>
<path d="M241.779 21.9348C241.779 21.8756 241.73 21.8307 241.676 21.8307H231.385C222.197 21.8307 221.008 28.6518 221.008 34.6463L221.016 39.8306C221.016 44.2919 223.762 47.5312 227.562 47.5312H233.148L233.252 47.4277V43.9495C233.252 43.8927 233.203 43.8422 233.148 43.8422L229.145 43.849C228.226 43.8297 226.996 43.4361 226.992 40.2373V34.6401C226.992 30.9205 227.339 28.5426 228.086 27.1896C228.916 25.6963 230.229 25.496 231.383 25.496H235.78L235.823 25.5484L235.812 47.4277C235.812 47.4807 235.86 47.5312 235.917 47.5312H241.681C241.738 47.5312 241.779 47.4807 241.779 47.4277" fill="white"/>
<path d="M218.614 21.8312H212.36L212.327 21.7925V17.5632C212.327 17.5071 212.284 17.4597 212.226 17.4597H206.466C206.407 17.4597 206.356 17.5071 206.356 17.5632V39.8336C206.356 44.2943 209.111 47.5317 212.905 47.5317H217.03C217.09 47.5317 217.135 47.4812 217.135 47.4276V43.9531C217.135 43.8963 217.09 43.8427 217.03 43.8427H214.497C213.848 43.8327 212.327 43.7996 212.321 40.5129V25.5202L212.356 25.4865C214.272 25.4965 218.614 25.4865 218.614 25.4865L218.716 25.3911V21.9353C218.716 21.8767 218.668 21.8312 218.614 21.8312Z" fill="white"/>
<path d="M258.843 21.8312H252.623L252.581 21.7925V17.5632L252.486 17.4597H246.714C246.657 17.4597 246.608 17.5071 246.608 17.5632V39.8336C246.608 44.2943 249.358 47.5317 253.149 47.5317H257.274C257.335 47.5317 257.376 47.4812 257.376 47.4276V43.9531C257.376 43.8963 257.335 43.8427 257.274 43.8427H254.741C254.091 43.8327 252.581 43.7996 252.581 40.5129V25.5202L252.616 25.4865C254.517 25.4965 258.843 25.4865 258.843 25.4865L258.945 25.3911V21.9353C258.945 21.8767 258.894 21.8312 258.843 21.8312Z" fill="white"/>
<path d="M268.368 21.8312H262.608C262.554 21.8312 262.503 21.8767 262.503 21.9353V47.4276L262.608 47.5317H268.368C268.431 47.5317 268.474 47.4812 268.474 47.4276V21.9353C268.474 21.8767 268.431 21.8312 268.368 21.8312Z" fill="white"/>
<path d="M268.368 13.7656H262.608L262.503 13.8667V18.7403C262.503 18.7996 262.554 18.8433 262.608 18.8433H268.368C268.431 18.8433 268.474 18.7996 268.474 18.7403V13.8667C268.474 13.8124 268.431 13.7656 268.368 13.7656Z" fill="white"/>
<path d="M308.222 21.8312H297.941C297.888 21.8312 297.84 21.8767 297.84 21.9353L297.837 47.4276L297.933 47.5317H303.704L303.801 47.4276L303.793 25.5421L303.833 25.4996L308.217 25.4965C309.402 25.4965 310.703 25.6893 311.535 27.0728C312.295 28.3229 312.64 30.5205 312.64 33.9694C312.645 34.1185 312.636 47.4276 312.636 47.4276C312.636 47.4812 312.682 47.5317 312.739 47.5317H318.484C318.547 47.5317 318.592 47.4812 318.592 47.4276V34.6431C318.592 28.6516 317.406 21.8312 308.222 21.8312Z" fill="white"/>
<path d="M286.817 42.1548C285.911 43.6619 284.471 43.8633 283.165 43.8633C281.872 43.8633 280.428 43.6619 279.512 42.1548C278.685 40.7987 278.303 38.4227 278.303 34.6762V34.6463C278.303 30.2249 278.842 27.7129 280.048 26.5165C280.769 25.7904 281.704 25.496 283.165 25.496C284.647 25.496 285.573 25.7904 286.294 26.5165C287.489 27.7129 288.029 30.2355 288.029 34.6762C288.029 38.4277 287.646 40.8055 286.817 42.1548ZM283.165 21.8312C273.543 21.8312 272.313 28.6842 272.313 34.6762C272.313 40.6752 273.543 47.5505 283.165 47.5505C292.788 47.5505 294.015 40.6752 294.015 34.6762C294.015 28.6842 292.788 21.8312 283.165 21.8312Z" fill="white"/>
<path d="M156.332 21.8312L156.265 21.9323L164.812 47.1912C164.826 47.248 164.826 47.3353 164.808 47.3908L159.996 59.8971C159.976 59.9563 160.002 60 160.059 60H165.07C165.132 60 165.197 59.9563 165.218 59.8971L180.221 21.9323C180.242 21.8717 180.215 21.8312 180.156 21.8312H174.689C174.629 21.8312 174.567 21.8767 174.549 21.9323L168.197 38.5306H168.126L162.518 21.9323C162.505 21.8717 162.441 21.8312 162.383 21.8312" fill="white"/>
<path d="M326.001 44.0485C326.001 44.2169 325.955 44.3267 325.866 44.3922C325.768 44.4633 325.633 44.4933 325.468 44.4933H324.624V43.6256H325.516C325.643 43.6256 325.74 43.6456 325.811 43.6792C325.933 43.7398 326.001 43.8608 326.001 44.0485ZM326.608 46.044C326.569 46.0284 326.537 45.986 326.512 45.9155C326.504 45.8631 326.496 45.777 326.494 45.6803L326.48 45.2905C326.472 45.0996 326.439 44.9568 326.359 44.8788C326.321 44.8102 326.256 44.7634 326.194 44.7154C326.274 44.6405 326.353 44.5638 326.418 44.4752C326.496 44.3523 326.537 44.1926 326.537 44.0148C326.537 43.6456 326.383 43.3898 326.084 43.2482C325.928 43.1846 325.74 43.1422 325.504 43.1422H324.08V46.2405H324.624V44.9767H325.451C325.604 44.9767 325.713 44.9986 325.782 45.0235C325.885 45.0896 325.941 45.1913 325.951 45.361L325.978 45.8469C325.985 45.9667 325.991 46.044 326.001 46.0927L326.038 46.2031L326.049 46.2405H326.648V46.0609M322.957 44.7609C322.957 44.1259 323.192 43.5495 323.625 43.1128C324.064 42.6781 324.648 42.4398 325.253 42.4398C325.865 42.4398 326.436 42.6781 326.865 43.1128C327.3 43.5495 327.536 44.1259 327.536 44.7609C327.536 46.0297 326.51 47.0602 325.253 47.0602C324.648 47.0602 324.064 46.825 323.625 46.3908C323.192 45.9561 322.957 45.3772 322.957 44.7609ZM325.253 47.5317C325.992 47.5317 326.679 47.2386 327.201 46.7233C327.711 46.1975 328 45.5013 328 44.7609C328 44.0105 327.711 43.3075 327.201 42.7891C326.679 42.262 325.992 41.9763 325.253 41.9763C323.733 41.9763 322.497 43.2189 322.497 44.7609C322.497 45.5013 322.779 46.1975 323.296 46.7233C323.817 47.2386 324.52 47.5317 325.253 47.5317Z" fill="white"/>
</g>
<defs>
<clipPath id="clip0_619_100">
<rect width="328" height="60" fill="white"/>
</clipPath>
</defs>
</svg>
