<svg width="256" height="74" viewBox="0 0 256 74" fill="none" xmlns="http://www.w3.org/2000/svg">
<g clip-path="url(#clip0_619_169)">
<path d="M130.667 59.9971H122.98L109.762 41.9L96.4508 59.9971H88.764L105.825 36.7029L90.1701 15.2648H97.857L109.762 31.5057L121.667 15.2648H129.354L113.606 36.7029L130.667 59.9971ZM170.601 47.2827C170.601 51.1805 169.289 54.3359 166.664 56.5632C164.039 58.7906 160.289 59.9971 155.415 59.9971H134.323V40.0439H124.199L128.417 34.2899H134.323V15.2648H154.571C159.164 15.2648 162.633 16.3784 165.07 18.513C167.507 20.6475 168.726 23.5245 168.726 26.9583C168.726 31.2273 166.757 34.5683 162.82 36.7029C165.351 37.6309 167.226 39.1158 168.539 40.8791C169.945 42.6424 170.601 44.8697 170.601 47.2827ZM141.166 34.3827H154.102C156.727 34.3827 158.696 33.8259 160.008 32.6194C161.32 31.5057 161.977 29.7424 161.977 27.4223C161.977 25.4734 161.32 23.8957 159.914 22.782C158.602 21.6683 156.633 21.1115 154.102 21.1115H141.166V34.3827ZM163.664 47.0971C163.664 44.7769 162.914 42.9208 161.508 41.8072C160.102 40.6007 157.946 40.0439 155.133 40.0439H141.166V54.0575H155.04C157.758 54.0575 159.914 53.4079 161.414 52.2942C162.914 51.0877 163.664 49.3244 163.664 47.0971ZM217.097 37.6309C217.097 41.0647 216.628 44.3129 215.597 47.0971C214.566 49.8812 213.066 52.387 211.097 54.5215C209.035 56.6561 206.692 58.3265 204.067 59.3474C201.442 60.4611 198.442 60.9251 195.068 60.9251C191.787 60.9251 188.693 60.3683 186.068 59.3474C183.444 58.2337 181.1 56.6561 179.038 54.5215C176.975 52.387 175.475 49.8812 174.444 47.0971C173.413 44.3129 172.944 41.0647 172.944 37.6309C172.944 34.1971 173.413 30.9489 174.444 28.1647C175.475 25.3806 176.975 22.782 179.038 20.6475C181.006 18.513 183.35 16.9353 186.068 15.8216C188.693 14.8007 191.787 14.2439 195.068 14.2439C198.349 14.2439 201.348 14.8007 204.067 15.8216C206.692 16.8425 209.129 18.513 211.097 20.6475C213.066 22.782 214.66 25.3806 215.597 28.1647C216.535 30.9489 217.097 34.1043 217.097 37.6309ZM180.069 37.6309C180.069 42.9208 181.475 47.0971 184.193 50.1597C186.912 53.2222 190.474 54.7999 195.068 54.7999C199.567 54.7999 203.223 53.2222 205.942 50.1597C208.66 47.0971 209.973 42.9208 209.973 37.6309C209.973 32.341 208.66 28.0719 205.942 25.0093C203.223 21.9468 199.567 20.3691 195.068 20.3691C190.568 20.3691 186.912 21.9468 184.193 25.0093C181.475 28.1647 180.069 32.341 180.069 37.6309ZM238.845 36.7029L254.594 15.2648H246.907L235.002 31.5057L223.096 15.2648H215.41L231.158 36.7029L214.097 59.9971H221.784L235.002 41.9L248.313 59.9971H256L238.845 36.7029Z" fill="white"/>
<path d="M37.3269 29.6737C48.5901 38.1519 67.6724 58.9788 61.9011 64.8767C55.2922 70.5903 46.7284 74 37.3269 74C27.9253 74 19.2685 70.5903 12.7526 64.8767C6.88824 58.9788 26.0636 38.1519 37.2338 29.7659C37.2338 29.6737 37.3269 29.6737 37.3269 29.6737ZM56.7815 5.43711C51.1034 2.0274 44.8667 0 37.3269 0C29.787 0 23.5504 2.0274 17.8722 5.43711C17.7791 5.43711 17.7791 5.52927 17.7791 5.62142C17.7791 5.71357 17.8722 5.71357 17.9653 5.71357C25.2259 4.14695 36.2098 10.3213 37.2338 10.9664H37.3269H37.4199C38.4439 10.3213 49.4278 4.14695 56.6884 5.71357C56.7815 5.71357 56.8746 5.71357 56.8746 5.62142C56.8746 5.52927 56.8746 5.43711 56.7815 5.43711ZM11.1701 10.5978C11.077 10.5978 11.077 10.6899 10.984 10.6899C4.1888 17.4172 0 26.7248 0 36.9539C0 45.34 2.88562 53.1731 7.63292 59.3474C7.63292 59.4396 7.72601 59.4396 7.81909 59.4396C7.91218 59.4396 7.91218 59.3474 7.81909 59.2553C4.93347 50.5006 19.5477 29.3973 27.0876 20.5504L27.1807 20.4583C27.1807 20.3661 27.1806 20.3661 27.0876 20.3661C15.6382 9.12328 11.8217 10.3213 11.1701 10.5978ZM47.5661 20.274L47.4731 20.3661C47.4731 20.3661 47.4731 20.4583 47.5661 20.4583C55.106 29.3051 69.6272 50.4085 66.8346 59.1631V59.3474C66.9277 59.3474 67.0208 59.3474 67.0208 59.2553C71.7681 53.0809 74.6537 45.2478 74.6537 36.8618C74.6537 26.6326 70.4649 17.325 63.5767 10.5978C63.4836 10.5056 63.4836 10.5056 63.3905 10.5056C62.832 10.3213 59.0155 9.12328 47.5661 20.274Z" fill="white"/>
</g>
<defs>
<clipPath id="clip0_619_169">
<rect width="256" height="74" fill="white"/>
</clipPath>
</defs>
</svg>
